<?xml version="1.0" standalone="no"?>
<!DOCTYPE svg PUBLIC "-//W3C//DTD SVG 20010904//EN"
 "http://www.w3.org/TR/2001/REC-SVG-20010904/DTD/svg10.dtd">
<svg version="1.0" xmlns="http://www.w3.org/2000/svg"
 width="100.000000pt" height="100.000000pt" viewBox="0 0 100.000000 100.000000"
 preserveAspectRatio="xMidYMid meet">

<g transform="translate(0.000000,100.000000) scale(0.100000,-0.100000)"
fill="#000000" stroke="none">
<path d="M125 828 c-44 -25 -44 -31 -44 -328 0 -299 0 -304 46 -328 31 -17
715 -17 746 0 46 24 46 29 46 328 0 299 0 304 -46 328 -30 17 -720 16 -748 0z
m679 -86 c-5 -5 -75 -50 -156 -101 l-148 -91 -147 91 c-82 51 -152 96 -157
101 -6 4 131 8 304 8 173 0 310 -4 304 -8z m-464 -192 l160 -100 160 100 c88
55 162 100 165 100 3 0 5 -88 5 -195 l0 -195 -330 0 -330 0 0 195 c0 107 2
195 5 195 3 0 77 -45 165 -100z"/>
</g>
</svg>
